<?xml version="1.0" encoding="UTF-8" standalone="no"?><!DOCTYPE svg PUBLIC "-//W3C//DTD SVG 1.1//EN" "http://www.w3.org/Graphics/SVG/1.1/DTD/svg11.dtd"><svg width="100%" height="100%" viewBox="0 0 14896 3042" version="1.1" xmlns="http://www.w3.org/2000/svg" xmlns:xlink="http://www.w3.org/1999/xlink" xml:space="preserve" xmlns:serif="http://www.serif.com/" style="fill-rule:evenodd;clip-rule:evenodd;stroke-linecap:round;stroke-linejoin:round;stroke-miterlimit:1.5;"><g id="Logo---New" serif:id="Logo - New"><g><path d="M13380.3,577.279c484.967,0 1697.39,1781.66 1454.9,2137.99c-242.484,356.332 -2667.32,356.332 -2909.8,0c-242.484,-356.332 969.935,-2137.99 1454.9,-2137.99Z" style="fill:#fff;stroke:#141212;stroke-width:57.9px;"/><path d="M13384.4,658.587c443.729,0 1553.05,1682.7 1331.19,2019.24c-221.865,336.54 -2440.51,336.54 -2662.37,-0c-221.864,-336.54 887.457,-2019.24 1331.19,-2019.24Z" style="fill:#a5aadb;"/><path d="M12751.1,970.556c383.275,-0 1341.46,1512.9 1149.83,1815.48c-191.637,302.58 -2108.01,302.58 -2299.65,0c-191.637,-302.58 766.55,-1815.48 1149.83,-1815.48Z" style="fill:#fff;stroke:#141212;stroke-width:57.9px;"/><path d="M12702.3,488.666c127.914,-0 193.933,86.898 193.933,193.933c0,146.1 -86.898,193.933 -193.933,193.933c-115.692,-0 -193.933,-65.647 -193.933,-193.933c0,-116.495 86.899,-193.933 193.933,-193.933Z" style="fill:#fff;stroke:#141212;stroke-width:57.9px;"/><path d="M13352,28.948c119.122,-0 215.834,65.988 215.834,215.835c0,151.932 -96.712,215.834 -215.834,215.834c-119.123,0 -215.835,-64.124 -215.835,-215.834c-0,-143.247 96.712,-215.835 215.835,-215.835Z" style="fill:#fff;stroke:#141212;stroke-width:57.9px;"/><path d="M12732.7,1059.34c298.871,-16.388 1225.96,1364.28 1083.44,1649.57c-154.733,309.748 -1944.69,346.829 -2124.35,56.116c-179.657,-290.713 682.09,-1686.01 1040.91,-1705.68Z" style="fill:#95d4cc;"/><path d="M11111.6,2724.35c-3.158,9.35 -13.314,14.377 -22.664,11.218c-9.35,-3.159 -14.377,-13.314 -11.218,-22.664c1.932,-5.718 3.871,-11.413 5.817,-17.084c3.203,-9.335 13.382,-14.313 22.717,-11.11c9.335,3.203 14.313,13.383 11.11,22.717c-1.928,5.618 -3.848,11.259 -5.762,16.923Zm29.641,-84.276c-3.397,9.266 -13.677,14.031 -22.943,10.634c-9.267,-3.397 -14.032,-13.678 -10.635,-22.944c4.176,-11.391 8.385,-22.674 12.629,-33.848c3.505,-9.226 13.84,-13.871 23.066,-10.367c9.226,3.505 13.871,13.84 10.367,23.066c-4.195,11.045 -8.356,22.199 -12.484,33.459Zm38.669,-99.85c-3.743,9.131 -14.196,13.506 -23.328,9.763c-9.131,-3.743 -13.506,-14.196 -9.763,-23.328c4.612,-11.252 9.266,-22.378 13.962,-33.375c3.876,-9.076 14.391,-13.298 23.468,-9.422c9.076,3.876 13.298,14.391 9.422,23.467c-4.629,10.839 -9.215,21.804 -13.761,32.895Zm42.789,-97.963c-4.173,8.943 -14.822,12.817 -23.765,8.644c-8.944,-4.172 -12.818,-14.821 -8.645,-23.765c5.157,-11.055 10.366,-21.96 15.627,-32.711c4.338,-8.864 15.057,-12.539 23.922,-8.201c8.864,4.338 12.539,15.057 8.201,23.921c-5.165,10.554 -10.278,21.259 -15.34,32.112Zm47.886,-95.298c-4.709,8.673 -15.574,11.892 -24.247,7.183c-8.673,-4.709 -11.892,-15.573 -7.183,-24.247c5.842,-10.761 11.749,-21.341 17.721,-31.737c4.916,-8.557 15.855,-11.514 24.413,-6.597c8.557,4.916 11.513,15.855 6.597,24.413c-5.831,10.149 -11.597,20.479 -17.301,30.985Zm54.22,-91.444c-5.381,8.273 -16.467,10.621 -24.74,5.24c-8.273,-5.381 -10.621,-16.466 -5.24,-24.739c6.708,-10.313 13.496,-20.405 20.368,-30.271c5.64,-8.098 16.794,-10.094 24.893,-4.454c8.098,5.641 10.094,16.795 4.454,24.894c-6.658,9.559 -13.236,19.338 -19.735,29.33Zm62.058,-85.735c-6.217,7.665 -17.487,8.841 -25.152,2.624c-7.666,-6.216 -8.841,-17.487 -2.625,-25.152c7.791,-9.605 15.684,-18.938 23.683,-27.994c6.534,-7.397 17.843,-8.098 25.24,-1.564c7.397,6.534 8.098,17.843 1.564,25.24c-7.67,8.684 -15.24,17.635 -22.71,26.846Zm71.516,-77.138c-7.217,6.731 -18.542,6.335 -25.273,-0.882c-6.73,-7.218 -6.335,-18.543 0.883,-25.274c9.091,-8.476 18.31,-16.619 27.663,-24.422c7.578,-6.322 18.864,-5.302 25.186,2.276c6.322,7.579 5.302,18.864 -2.276,25.186c-8.852,7.385 -17.578,15.093 -26.183,23.116Zm82.204,-64.368c-8.303,5.335 -19.376,2.925 -24.71,-5.378c-5.335,-8.303 -2.925,-19.375 5.378,-24.71c10.477,-6.731 21.111,-13.068 31.906,-19.002c8.648,-4.755 19.53,-1.593 24.284,7.055c4.754,8.649 1.593,19.53 -7.055,24.284c-10.084,5.544 -20.017,11.464 -29.803,17.751Zm92.66,-46.618c-9.247,3.447 -19.554,-1.262 -23.001,-10.51c-3.447,-9.248 1.263,-19.554 10.511,-23.001c11.614,-4.329 23.403,-8.229 35.372,-11.692c9.48,-2.742 19.404,2.728 22.146,12.208c2.743,9.481 -2.727,19.404 -12.207,22.147c-11.105,3.213 -22.044,6.832 -32.821,10.848Zm100.472,-25.054c-9.782,1.313 -18.789,-5.562 -20.103,-15.343c-1.313,-9.782 5.562,-18.789 15.343,-20.103c12.157,-1.632 24.487,-2.847 36.994,-3.636c9.85,-0.621 18.351,6.871 18.972,16.721c0.621,9.849 -6.871,18.35 -16.72,18.972c-11.66,0.735 -23.154,1.867 -34.486,3.389Zm103.958,-3.168c-9.847,-0.655 -17.31,-9.182 -16.655,-19.03c0.656,-9.847 9.183,-17.31 19.03,-16.654c12.103,0.805 24.363,1.982 36.783,3.537c9.793,1.226 16.748,10.172 15.522,19.965c-1.227,9.792 -10.172,16.747 -19.965,15.521c-11.722,-1.467 -23.292,-2.579 -34.715,-3.339Zm103.588,15.687c-9.615,-2.223 -15.617,-11.834 -13.394,-21.45c2.223,-9.615 11.835,-15.617 21.45,-13.394c11.723,2.71 23.581,5.737 35.577,9.084c9.506,2.653 15.07,12.524 12.418,22.03c-2.653,9.506 -12.524,15.07 -22.03,12.417c-11.471,-3.2 -22.811,-6.095 -34.021,-8.687Zm101.028,30.342c-9.269,-3.39 -14.042,-13.667 -10.652,-22.936c3.389,-9.269 13.666,-14.042 22.935,-10.652c11.246,4.112 22.606,8.491 34.084,13.14c9.148,3.704 13.566,14.139 9.861,23.286c-3.704,9.148 -14.139,13.566 -23.286,9.862c-11.093,-4.493 -22.073,-8.726 -32.942,-12.7Zm97.671,41.273c-8.908,-4.246 -12.693,-14.927 -8.447,-23.836c4.247,-8.909 14.928,-12.694 23.836,-8.447c10.78,5.139 21.658,10.503 32.637,16.096c8.793,4.48 12.296,15.256 7.816,24.05c-4.48,8.794 -15.257,12.296 -24.051,7.816c-10.694,-5.448 -21.29,-10.673 -31.791,-15.679Zm94.261,49.412c-8.576,-4.885 -11.572,-15.813 -6.687,-24.388c4.885,-8.576 15.813,-11.572 24.389,-6.687c10.361,5.902 20.808,11.999 31.341,18.291c8.473,5.062 11.242,16.049 6.181,24.522c-5.061,8.472 -16.049,11.242 -24.522,6.181c-10.318,-6.165 -20.552,-12.137 -30.702,-17.919Zm91.1,55.57c-8.28,-5.371 -10.641,-16.454 -5.27,-24.733c5.372,-8.28 16.454,-10.641 24.734,-5.27c9.996,6.485 20.068,13.14 30.215,19.964c8.19,5.508 10.367,16.628 4.859,24.818c-5.508,8.189 -16.628,10.366 -24.817,4.858c-9.982,-6.713 -19.888,-13.258 -29.721,-19.637Zm88.266,60.328c-8.021,-5.75 -9.864,-16.931 -4.113,-24.952c5.75,-8.02 16.931,-9.863 24.951,-4.113c9.681,6.941 19.429,14.031 29.243,21.272c7.942,5.859 9.634,17.063 3.775,25.005c-5.859,7.942 -17.064,9.633 -25.006,3.774c-9.682,-7.143 -19.299,-14.138 -28.85,-20.986Zm85.767,64.094c-7.794,-6.054 -9.208,-17.297 -3.155,-25.091c6.054,-7.795 17.296,-9.209 25.091,-3.156c9.408,7.306 18.875,14.745 28.402,22.318c7.725,6.14 9.012,17.399 2.871,25.124c-6.141,7.726 -17.399,9.013 -25.125,2.872c-9.42,-7.488 -18.781,-14.843 -28.084,-22.067Zm83.555,67.122c-7.597,-6.299 -8.65,-17.582 -2.35,-25.179c6.3,-7.597 17.582,-8.65 25.179,-2.35c9.169,7.604 18.392,15.327 27.669,23.171c7.537,6.372 8.482,17.663 2.11,25.2c-6.372,7.536 -17.664,8.482 -25.2,2.11c-9.19,-7.77 -18.326,-15.42 -27.408,-22.952Zm81.611,69.621c-7.422,-6.504 -8.168,-17.811 -1.664,-25.234c6.504,-7.422 17.81,-8.168 25.233,-1.664c8.96,7.85 17.969,15.81 27.028,23.879c7.369,6.564 8.023,17.877 1.458,25.246c-6.564,7.37 -17.877,8.023 -25.246,1.459c-8.985,-8.004 -17.921,-15.899 -26.809,-23.686Zm79.874,71.694c-7.269,-6.676 -7.751,-17.997 -1.075,-25.266c6.676,-7.268 17.997,-7.75 25.266,-1.074c4.279,3.93 8.569,7.883 12.907,11.892c4.251,3.487 8.574,6.826 12.968,10.022c7.982,5.804 9.75,16.997 3.946,24.978c-5.804,7.982 -16.997,9.75 -24.979,3.946c-5.118,-3.722 -10.152,-7.618 -15.098,-11.691c-0.265,-0.218 -0.523,-0.443 -0.775,-0.676c-4.398,-4.069 -8.785,-8.112 -13.16,-12.131Zm95.611,61.566c-9.133,-3.741 -13.512,-14.192 -9.771,-23.325c3.74,-9.133 14.191,-13.511 23.324,-9.771c10.481,4.292 21.209,7.972 32.149,11.062c9.497,2.683 15.03,12.572 12.347,22.07c-2.683,9.497 -12.572,15.03 -22.069,12.347c-12.245,-3.459 -24.251,-7.58 -35.98,-12.383Zm110.466,25.255c-9.843,-0.713 -17.255,-9.284 -16.542,-19.128c0.714,-9.843 9.285,-17.255 19.128,-16.542c11.355,0.824 22.844,1.13 34.437,0.942c9.868,-0.161 18.01,7.721 18.17,17.588c0.161,9.868 -7.721,18.01 -17.588,18.171c-12.66,0.205 -25.206,-0.132 -37.605,-1.031Zm112.036,-6.113c-9.726,1.675 -18.982,-4.861 -20.658,-14.586c-1.675,-9.726 4.861,-18.983 14.586,-20.658c11.338,-1.953 22.714,-4.321 34.102,-7.087c9.59,-2.329 19.267,3.567 21.596,13.157c2.329,9.591 -3.566,19.268 -13.157,21.597c-12.178,2.957 -24.344,5.488 -36.469,7.577Zm107.364,-29.515c-9.239,3.47 -19.557,-1.214 -23.027,-10.453c-3.47,-9.239 1.214,-19.557 10.453,-23.027c10.865,-4.081 21.693,-8.497 32.461,-13.233c9.033,-3.974 19.594,0.134 23.568,9.168c3.974,9.034 -0.134,19.594 -9.168,23.568c-11.373,5.003 -22.81,9.667 -34.287,13.977Zm100.286,-47.222c-8.576,4.883 -19.504,1.884 -24.386,-6.693c-4.883,-8.577 -1.884,-19.504 6.692,-24.387c10.148,-5.777 20.194,-11.829 30.119,-18.146c8.326,-5.298 19.388,-2.84 24.686,5.486c5.299,8.326 2.841,19.388 -5.485,24.686c-10.421,6.632 -20.971,12.988 -31.626,19.054Zm91.892,-61.628c-7.778,6.075 -19.025,4.693 -25.1,-3.085c-6.075,-7.778 -4.692,-19.025 3.086,-25.1c9.233,-7.211 18.306,-14.654 27.2,-22.315c7.477,-6.442 18.777,-5.601 25.218,1.876c6.442,7.478 5.601,18.778 -1.876,25.219c-9.328,8.036 -18.844,15.842 -28.528,23.405Zm82.039,-74.25c-6.811,7.143 -18.139,7.412 -25.281,0.602c-7.143,-6.81 -7.413,-18.139 -0.603,-25.281c8.092,-8.487 15.963,-17.169 23.592,-26.032c6.438,-7.48 17.738,-8.326 25.218,-1.888c7.48,6.439 8.326,17.738 1.888,25.218c-8.024,9.323 -16.303,18.454 -24.814,27.381Zm70.03,-85.931c-5.598,8.129 -16.741,10.183 -24.87,4.586c-8.128,-5.597 -10.183,-16.741 -4.585,-24.869c6.638,-9.641 12.988,-19.442 19.026,-29.391c5.12,-8.437 16.127,-11.129 24.564,-6.009c8.437,5.12 11.129,16.127 6.009,24.564c-6.393,10.534 -13.115,20.912 -20.144,31.119Zm54.721,-96.852c-4.032,9.008 -14.619,13.048 -23.627,9.017c-9.008,-4.032 -13.048,-14.618 -9.017,-23.626c4.757,-10.628 9.149,-21.382 13.153,-32.248c3.413,-9.261 13.702,-14.008 22.962,-10.596c9.26,3.413 14.008,13.702 10.595,22.962c-4.283,11.622 -8.979,23.124 -14.066,34.491Zm34.756,-106.216c-2.02,9.66 -11.503,15.863 -21.163,13.843c-9.66,-2.02 -15.863,-11.503 -13.843,-21.163c2.363,-11.3 4.289,-22.685 5.754,-34.143c1.252,-9.79 10.217,-16.721 20.006,-15.469c9.789,1.252 16.721,10.216 15.469,20.005c-1.585,12.393 -3.667,24.707 -6.223,36.927Zm9.584,-111.825c0.384,9.861 -7.311,18.179 -17.173,18.563c-9.861,0.384 -18.179,-7.311 -18.563,-17.173c-0.445,-11.426 -1.374,-22.896 -2.809,-34.396c-1.221,-9.793 5.738,-18.736 15.531,-19.958c9.793,-1.222 18.736,5.737 19.958,15.53c1.561,12.516 2.572,24.998 3.056,37.434Zm-18.614,-110.821c2.848,9.449 -2.512,19.433 -11.961,22.281c-9.449,2.848 -19.433,-2.512 -22.281,-11.961c-3.283,-10.894 -7.052,-21.793 -11.321,-32.685c-3.602,-9.188 0.933,-19.572 10.121,-23.174c9.189,-3.602 19.573,0.933 23.175,10.121c4.627,11.803 8.709,23.613 12.267,35.418Zm-44.761,-102.681c4.935,8.547 2.002,19.492 -6.544,24.427c-8.547,4.935 -19.493,2.002 -24.427,-6.545c-5.7,-9.871 -11.842,-19.72 -18.44,-29.539c-5.505,-8.191 -3.323,-19.311 4.869,-24.815c8.191,-5.504 19.311,-3.323 24.815,4.869c7.059,10.505 13.63,21.042 19.727,31.603Zm-64.871,-90.509c6.455,7.465 5.635,18.767 -1.83,25.222c-7.465,6.456 -18.767,5.636 -25.222,-1.829c-3.785,-4.378 -7.668,-8.746 -11.65,-13.104c-6.657,-7.286 -6.146,-18.606 1.14,-25.263c7.286,-6.657 18.605,-6.146 25.262,1.14c4.204,4.601 8.304,9.213 12.3,13.834Z" style="fill:#141212;"/><path d="M14117.9,1133.57c6.996,6.961 7.025,18.293 0.064,25.289c-6.961,6.996 -18.293,7.024 -25.289,0.063c-4.248,-4.227 -8.499,-8.371 -12.752,-12.433c-7.136,-6.816 -7.396,-18.145 -0.58,-25.282c6.817,-7.136 18.146,-7.396 25.282,-0.58c4.427,4.229 8.852,8.543 13.275,12.943Zm-69.197,-61.838c7.723,6.144 9.004,17.403 2.859,25.126c-6.145,7.723 -17.403,9.004 -25.126,2.859c-9.432,-7.504 -18.858,-14.62 -28.273,-21.357c-8.026,-5.743 -9.879,-16.922 -4.136,-24.948c5.743,-8.026 16.922,-9.879 24.948,-4.136c9.899,7.083 19.811,14.565 29.728,22.456Zm-92.834,-62.455c8.634,4.781 11.762,15.672 6.981,24.306c-4.781,8.634 -15.672,11.762 -24.306,6.982c-10.473,-5.8 -20.911,-11.144 -31.305,-16.045c-8.926,-4.209 -12.756,-14.874 -8.547,-23.8c4.21,-8.927 14.874,-12.757 23.801,-8.547c11.081,5.225 22.21,10.922 33.376,17.104Zm-103.543,-44.268c9.444,2.866 14.784,12.86 11.918,22.304c-2.866,9.444 -12.86,14.784 -22.303,11.918c-11.343,-3.442 -22.603,-6.365 -33.765,-8.786c-9.645,-2.093 -15.776,-11.622 -13.684,-21.267c2.093,-9.645 11.622,-15.776 21.267,-13.684c12.088,2.623 24.283,5.787 36.567,9.515Zm-111.715,-19.09c9.862,0.364 17.574,8.667 17.209,18.529c-0.364,9.863 -8.667,17.574 -18.529,17.21c-11.709,-0.433 -23.263,-0.309 -34.642,0.347c-9.853,0.568 -18.314,-6.97 -18.882,-16.823c-0.568,-9.852 6.97,-18.313 16.823,-18.881c12.49,-0.72 25.17,-0.857 38.021,-0.382Zm-113.197,12.162c9.551,-2.485 19.323,3.252 21.808,12.803c2.484,9.551 -3.252,19.323 -12.804,21.808c-11.231,2.922 -22.221,6.386 -32.946,10.361c-9.254,3.43 -19.551,-1.298 -22.982,-10.552c-3.43,-9.253 1.298,-19.551 10.552,-22.981c11.84,-4.389 23.972,-8.213 36.372,-11.439Zm-104.763,44.936c8.385,-5.205 19.419,-2.624 24.624,5.761c5.205,8.385 2.624,19.418 -5.761,24.624c-9.812,6.091 -19.295,12.657 -28.424,19.663c-7.829,6.009 -19.064,4.531 -25.072,-3.298c-6.009,-7.829 -4.531,-19.064 3.298,-25.073c10.064,-7.724 20.518,-14.961 31.335,-21.677Zm-86.869,73.635c6.522,-7.407 17.831,-8.126 25.238,-1.604c7.407,6.522 8.125,17.831 1.603,25.238c-7.619,8.654 -14.834,17.683 -21.619,27.054c-5.788,7.994 -16.977,9.785 -24.971,3.997c-7.993,-5.788 -9.785,-16.977 -3.997,-24.971c7.452,-10.292 15.377,-20.209 23.746,-29.714Zm-62.305,95.133c4.196,-8.933 14.855,-12.779 23.788,-8.584c8.932,4.196 12.779,14.855 8.583,23.788c-4.896,10.423 -9.327,21.113 -13.272,32.038c-3.351,9.283 -13.609,14.098 -22.891,10.747c-9.283,-3.351 -14.098,-13.609 -10.747,-22.891c4.321,-11.969 9.176,-23.68 14.539,-35.098Zm-33.649,108.515c1.604,-9.738 10.812,-16.341 20.55,-14.737c9.738,1.603 16.342,10.812 14.738,20.55c-1.867,11.339 -3.236,22.841 -4.085,34.477c-0.718,9.843 -9.292,17.251 -19.136,16.533c-9.843,-0.718 -17.251,-9.292 -16.533,-19.135c0.928,-12.719 2.425,-25.292 4.466,-37.688Zm-3.238,113.442c-1.027,-9.816 6.108,-18.619 15.923,-19.646c9.816,-1.027 18.619,6.108 19.646,15.924c1.194,11.412 2.892,22.895 5.11,34.425c1.865,9.691 -4.49,19.073 -14.181,20.938c-9.692,1.865 -19.074,-4.49 -20.938,-14.181c-2.414,-12.546 -4.261,-25.042 -5.56,-37.46Zm25.923,110.204c-3.42,-9.257 1.318,-19.55 10.576,-22.971c9.257,-3.42 19.55,1.318 22.971,10.576c3.98,10.771 8.436,21.543 13.382,32.296c4.124,8.966 0.193,19.594 -8.773,23.718c-8.967,4.124 -19.594,0.193 -23.718,-8.773c-5.337,-11.602 -10.144,-23.224 -14.438,-34.846Zm50.745,100.689c-5.361,-8.286 -2.987,-19.366 5.299,-24.727c8.286,-5.362 19.366,-2.987 24.727,5.299c3.156,4.877 6.42,9.742 9.795,14.594c5.634,8.103 3.631,19.256 -4.472,24.89c-8.103,5.635 -19.255,3.631 -24.89,-4.471c-3.603,-5.182 -7.089,-10.377 -10.459,-15.585Z" style="fill:#141212;"/></g><path d="M-0,690.164c-0,-91.15 26.947,-163.221 80.841,-216.215c53.894,-52.994 127.19,-79.491 219.888,-79.491l1067.1,-0c15.091,23.317 28.564,54.054 40.421,92.209c11.857,38.156 17.785,78.431 17.785,120.826c0,80.551 -17.785,137.785 -53.355,171.701c-35.57,33.916 -82.458,50.874 -140.663,50.874l-682.299,-0l0,295.706l727.569,-0c15.091,23.317 28.564,53.524 40.421,90.619c11.857,37.096 17.785,76.842 17.785,119.237c0,80.55 -17.246,137.784 -51.738,171.7c-34.492,33.916 -80.841,50.874 -139.047,50.874l-594.99,0l0,333.862l831.046,-0c15.09,23.317 28.564,54.053 40.421,92.209c11.856,38.156 17.785,78.431 17.785,120.826c-0,80.551 -17.785,138.314 -53.356,173.29c-35.57,34.976 -82.457,52.464 -140.663,52.464l-944.223,0c-92.698,0 -165.994,-26.497 -219.888,-79.491c-53.894,-52.994 -80.841,-125.065 -80.841,-216.215l-0,-1344.99Zm2237.68,38.156c88.386,-0 175.156,12.188 260.308,36.565c85.153,24.378 158.988,60.943 221.505,109.698c64.673,-42.395 137.429,-77.371 218.271,-104.928c80.841,-27.557 178.389,-41.335 292.644,-41.335c81.919,-0 162.221,10.598 240.906,31.796c78.686,21.197 148.748,54.584 210.187,100.158c61.439,45.575 110.483,105.988 147.131,181.239c36.648,75.252 54.972,166.931 54.972,275.039l-0,1001.59c-21.558,6.359 -55.511,12.718 -101.86,19.077c-46.349,6.36 -94.315,9.539 -143.897,9.539c-47.427,0 -90.003,-3.179 -127.729,-9.539c-37.726,-6.359 -69.523,-19.077 -95.392,-38.155c-25.869,-19.078 -45.81,-45.045 -59.823,-77.901c-14.012,-32.856 -21.018,-75.782 -21.018,-128.775l-0,-759.933c-0,-63.593 -18.324,-109.697 -54.972,-138.314c-36.648,-28.617 -86.231,-42.925 -148.748,-42.925c-30.18,-0 -62.517,6.889 -97.009,20.667c-34.492,13.779 -60.361,28.087 -77.607,42.926c2.155,8.479 3.233,16.428 3.233,23.847l0,1079.49c-23.713,6.359 -58.744,12.718 -105.093,19.077c-46.349,6.36 -93.237,9.539 -140.664,9.539c-47.426,0 -90.003,-3.179 -127.728,-9.539c-37.726,-6.359 -69.524,-19.077 -95.393,-38.155c-25.869,-19.078 -45.81,-45.045 -59.822,-77.901c-14.013,-32.856 -21.019,-75.782 -21.019,-128.775l0,-759.933c0,-63.593 -19.941,-109.697 -59.822,-138.314c-39.882,-28.617 -87.848,-42.925 -143.897,-42.925c-38.804,-0 -72.218,5.829 -100.243,17.488c-28.025,11.659 -51.738,22.787 -71.14,33.386l-0,1116.05c-21.558,6.359 -55.511,12.718 -101.86,19.077c-46.349,6.36 -94.315,9.539 -143.897,9.539c-47.427,0 -90.003,-3.179 -127.729,-9.539c-37.726,-6.359 -69.523,-19.077 -95.392,-38.155c-25.87,-19.078 -45.81,-45.045 -59.823,-77.901c-14.012,-32.856 -21.018,-75.782 -21.018,-128.775l-0,-960.25c-0,-57.233 12.395,-102.808 37.186,-136.724c24.792,-33.916 58.745,-65.713 101.86,-95.389c73.296,-50.874 164.377,-92.21 273.243,-124.006c108.866,-31.796 222.582,-47.694 341.149,-47.694Zm1759.1,-476.946c21.558,-6.359 56.05,-13.248 103.477,-20.667c47.426,-7.419 95.931,-11.129 145.514,-11.129c47.426,0 90.003,3.18 127.728,9.539c37.726,6.359 69.524,19.078 95.393,38.156c25.869,19.077 45.271,45.044 58.205,77.901c12.935,32.856 19.402,75.781 19.402,128.775l0,311.604c53.894,-21.198 105.094,-36.036 153.598,-44.515c48.505,-8.479 101.86,-12.718 160.066,-12.718c103.476,-0 201.563,18.017 294.261,54.053c92.698,36.036 174.617,88.5 245.757,157.392c71.14,68.892 127.19,154.212 168.149,255.961c40.96,101.748 61.439,219.394 61.439,352.939c0,137.784 -21.018,258.08 -63.056,360.889c-42.037,102.808 -100.782,188.128 -176.233,255.96c-75.452,67.832 -167.611,119.236 -276.477,154.212c-108.865,34.976 -229.049,52.464 -360.551,52.464c-142.28,0 -263.002,-16.428 -362.167,-49.284c-99.166,-32.856 -183.24,-73.661 -252.225,-122.416c-94.853,-65.712 -142.28,-150.503 -142.28,-254.371l0,-1694.75Zm756.672,1694.75c99.165,0 176.234,-33.386 231.206,-100.158c54.972,-66.772 82.458,-165.871 82.458,-297.296c-0,-133.545 -28.025,-233.173 -84.075,-298.885c-56.05,-65.713 -131.501,-98.569 -226.355,-98.569c-43.115,-0 -80.302,4.239 -111.561,12.718c-31.258,8.479 -65.211,21.198 -101.859,38.156l-0,693.16c23.713,14.839 52.277,27.027 85.691,36.566c33.414,9.539 74.913,14.308 124.495,14.308Zm1464.84,372.018c-21.558,6.359 -55.511,12.718 -101.86,19.077c-46.348,6.36 -94.314,9.539 -143.897,9.539c-47.426,0 -90.003,-3.179 -127.729,-9.539c-37.725,-6.359 -69.523,-19.077 -95.392,-38.155c-25.869,-19.078 -45.81,-45.045 -59.822,-77.901c-14.013,-32.856 -21.019,-75.782 -21.019,-128.775l0,-953.891c0,-48.754 9.162,-90.619 27.486,-125.595c18.324,-34.976 44.732,-66.243 79.224,-93.799c34.492,-27.557 77.069,-52.464 127.729,-74.722c50.66,-22.257 105.093,-41.865 163.299,-58.823c58.205,-16.958 118.567,-30.207 181.084,-39.745c62.517,-9.539 125.034,-14.309 187.551,-14.309c103.477,0 185.396,19.608 245.757,58.823c60.361,39.216 90.542,103.338 90.542,192.368c-0,29.677 -4.312,58.823 -12.935,87.44c-8.623,28.617 -19.402,54.584 -32.336,77.901c-45.271,0 -91.62,2.12 -139.047,6.359c-47.426,4.24 -93.775,10.599 -139.046,19.078c-45.271,8.479 -87.848,17.488 -127.729,27.027c-39.882,9.539 -73.835,20.668 -101.86,33.386l0,1084.26Zm1225.55,-1589.82c116.411,-0 222.583,11.658 318.514,34.976c95.931,23.317 177.85,58.823 245.757,106.517c67.906,47.695 120.184,108.108 156.831,181.239c36.648,73.132 54.972,159.512 54.972,259.141l0,712.238c0,55.113 -15.629,100.158 -46.887,135.134c-31.259,34.976 -68.446,65.183 -111.561,90.62c-140.125,82.67 -337.377,124.005 -591.757,124.005c-114.255,0 -217.192,-10.598 -308.812,-31.796c-91.62,-21.198 -170.305,-52.994 -236.056,-95.389c-65.751,-42.395 -116.411,-96.449 -151.981,-162.161c-35.57,-65.713 -53.355,-142.024 -53.355,-228.934c-0,-146.263 44.193,-258.61 132.579,-337.041c88.386,-78.431 225.277,-127.186 410.672,-146.263l423.607,-44.515l0,-22.258c0,-61.473 -27.485,-105.458 -82.457,-131.955c-54.972,-26.496 -134.197,-39.745 -237.673,-39.745c-81.919,0 -161.682,8.479 -239.29,25.437c-77.607,16.958 -147.669,38.156 -210.186,63.593c-28.025,-19.078 -51.739,-48.225 -71.14,-87.44c-19.402,-39.216 -29.103,-80.021 -29.103,-122.416c-0,-55.114 13.473,-99.099 40.42,-131.955c26.947,-32.856 68.446,-60.943 124.496,-84.26c62.517,-23.317 136.351,-40.276 221.504,-50.874c85.153,-10.599 165.455,-15.898 240.906,-15.898Zm25.869,1249.6c36.648,-0 77.069,-3.71 121.262,-11.129c44.193,-7.419 77.068,-17.488 98.626,-30.207l0,-254.37l-232.822,19.078c-60.361,4.239 -109.944,16.958 -148.748,38.155c-38.803,21.198 -58.205,52.994 -58.205,95.389c-0,42.395 16.707,76.841 50.121,103.338c33.415,26.497 90.003,39.746 169.766,39.746Zm1742.93,-823.526c-53.894,0 -105.093,8.48 -153.598,25.438c-48.504,16.958 -90.542,41.865 -126.112,74.721c-35.57,32.856 -64.134,73.661 -85.691,122.416c-21.558,48.754 -32.337,105.988 -32.337,171.7c0,131.425 38.265,229.994 114.795,295.706c76.529,65.713 169.766,98.569 279.71,98.569c64.673,-0 120.722,-7.419 168.149,-22.258c47.427,-14.838 89.464,-30.736 126.112,-47.694c43.115,29.676 75.452,62.003 97.009,96.979c21.558,34.976 32.337,76.841 32.337,125.595c-0,86.91 -42.038,154.212 -126.112,201.907c-84.075,47.694 -200.486,71.542 -349.234,71.542c-135.812,-0 -258.691,-19.608 -368.635,-58.824c-109.944,-39.215 -204.258,-94.329 -282.943,-165.34c-78.686,-71.012 -139.586,-156.332 -182.701,-255.961c-43.115,-99.629 -64.673,-209.856 -64.673,-330.682c0,-139.904 23.174,-262.32 69.523,-367.248c46.349,-104.928 109.405,-191.308 189.168,-259.14c79.764,-67.832 171.922,-118.706 276.477,-152.622c104.554,-33.916 215.037,-50.874 331.448,-50.874c155.215,-0 274.86,27.556 358.934,82.67c84.075,55.114 126.112,126.125 126.112,213.035c0,40.276 -9.701,77.902 -29.102,112.878c-19.402,34.975 -42.038,65.182 -67.907,90.619c-36.648,-16.958 -80.841,-33.386 -132.579,-49.284c-51.739,-15.898 -107.788,-23.848 -168.15,-23.848Zm1248.19,1217.8c-127.19,0 -245.218,-17.488 -354.084,-52.464c-108.866,-34.976 -203.719,-87.44 -284.56,-157.391c-80.841,-69.952 -144.436,-157.922 -190.785,-263.91c-46.349,-105.988 -69.523,-229.994 -69.523,-372.017c-0,-139.904 23.174,-260.2 69.523,-360.889c46.349,-100.688 107.249,-183.359 182.701,-248.011c75.451,-64.653 161.682,-112.347 258.691,-143.084c97.009,-30.736 196.174,-46.104 297.495,-46.104c114.255,-0 218.271,16.958 312.047,50.874c93.775,33.916 174.616,80.55 242.523,139.904c67.906,59.353 120.722,130.365 158.448,213.035c37.726,82.671 56.589,172.76 56.589,270.269c-0,72.072 -20.48,127.185 -61.439,165.341c-40.96,38.156 -98.087,62.533 -171.383,73.132l-798.71,117.646c23.714,69.952 72.218,122.416 145.514,157.392c73.296,34.976 157.371,52.464 252.224,52.464c88.386,-0 171.922,-11.129 250.607,-33.386c78.686,-22.258 142.819,-48.225 192.402,-77.901c34.492,21.197 63.595,50.874 87.308,89.029c23.714,38.156 35.57,78.431 35.57,120.826c0,95.39 -45.271,166.401 -135.813,213.036c-68.984,36.036 -146.591,60.413 -232.822,73.132c-86.23,12.718 -167.071,19.077 -242.523,19.077Zm-90.542,-1249.6c-51.738,0 -96.47,8.479 -134.196,25.437c-37.726,16.958 -68.445,38.686 -92.159,65.183c-23.713,26.497 -41.498,56.173 -53.355,89.029c-11.857,32.857 -18.863,66.243 -21.019,100.159l552.953,-89.03c-6.467,-42.395 -30.18,-84.79 -71.14,-127.185c-40.959,-42.395 -101.321,-63.593 -181.084,-63.593Z" style="fill:#141212;"/><path d="M7737.84,2691.92l-1.279,8.942c-1.987,-0.652 -5.299,-1.303 -9.937,-1.955c-4.637,-0.651 -9.275,-0.977 -13.912,-0.977c-8.944,0 -17.556,1.629 -25.837,4.886c-8.282,3.257 -15.486,8.387 -21.614,15.39c-6.128,7.003 -11.097,15.96 -14.906,26.871c-3.81,10.912 -5.714,24.022 -5.714,39.33l-0,117.257l-33.787,-0l-0,-178.328c-0,-6.189 -0.166,-14.169 -0.497,-23.94c-0.331,-9.771 -0.828,-18.566 -1.491,-26.383l32.297,0c0.662,6.189 1.159,13.029 1.49,20.52c0.332,7.491 0.497,13.68 0.497,18.566l0.994,-0c6.625,-13.355 16.562,-24.184 29.812,-32.49c13.25,-8.306 28.156,-12.459 44.718,-12.459c4.306,0 8.199,0.163 11.677,0.489c3.478,0.326 7.039,0.977 10.682,1.954l-0.489,3.42l26.823,0l79.002,192.985l0.994,0l72.046,-192.985l36.768,0l-115.77,287.768c-6.956,17.588 -15.817,31.675 -26.582,42.261c-10.766,10.586 -26.252,15.879 -46.458,15.879c-10.268,-0 -20.371,-0.978 -30.309,-2.932l3.478,-30.291c7.95,2.606 16.231,3.908 24.844,3.908c11.593,0 20.703,-3.501 27.328,-10.504c6.625,-7.003 12.421,-17.018 17.39,-30.047l18.881,-47.88l-91.139,-209.255Zm-7718.28,209.744l0,-345.908l236.51,0l-0,70.843l-154.526,0l-0,64.98l146.079,-0l-0,66.934l-146.079,-0l-0,71.82l163.469,-0l0,71.331l-245.453,-0Zm589.783,-0l0,-132.891c0,-6.84 -0.497,-13.436 -1.49,-19.787c-0.994,-6.352 -2.816,-11.807 -5.466,-16.367c-2.65,-4.56 -6.211,-8.225 -10.683,-10.993c-4.471,-2.769 -10.351,-4.153 -17.638,-4.153c-6.957,0 -13.002,1.466 -18.136,4.397c-5.134,2.932 -9.441,6.84 -12.919,11.726c-3.478,4.886 -6.045,10.504 -7.701,16.855c-1.656,6.352 -2.485,12.948 -2.485,19.788l0,131.425l-81.486,-0l0,-138.754c0,-14.006 -2.816,-25.08 -8.447,-33.223c-5.631,-8.143 -14.575,-12.214 -26.831,-12.214c-12.918,0 -22.938,5.049 -30.06,15.146c-7.122,10.097 -10.683,22.474 -10.683,37.131l0,131.914l-81.983,-0l-0,-243.308l79.002,0l-0,33.711l0.994,0c2.981,-5.211 6.707,-10.26 11.179,-15.145c4.472,-4.886 9.855,-9.202 16.148,-12.947c6.294,-3.746 13.333,-6.759 21.117,-9.039c7.785,-2.28 16.314,-3.42 25.589,-3.42c17.887,0 33.042,3.583 45.464,10.749c12.421,7.165 22.11,17.425 29.066,30.78c8.282,-12.703 18.881,-22.8 31.8,-30.292c12.919,-7.491 28.653,-11.237 47.202,-11.237c16.894,0 31.055,3.013 42.483,9.039c11.428,6.025 20.62,13.842 27.576,23.451c6.956,9.609 12.008,20.357 15.154,32.246c3.147,11.888 4.721,23.532 4.721,34.932l-0,150.48l-81.487,-0Zm395.508,-122.631c-0,16.937 -2.65,33.223 -7.95,48.857c-5.3,15.634 -13.002,29.395 -23.105,41.284c-10.103,11.888 -22.442,21.416 -37.016,28.581c-14.575,7.166 -31.138,10.749 -49.687,10.749c-16.563,-0 -32.214,-3.339 -46.954,-10.016c-14.741,-6.677 -26.086,-16.204 -34.036,-28.581l-0.994,-0l0,31.757l-75.027,-0l0,-369.359l81.487,0l-0,151.945l0.993,0c6.957,-8.143 16.728,-15.634 29.316,-22.474c12.587,-6.84 27.99,-10.26 46.208,-10.26c17.888,0 34.036,3.42 48.445,10.26c14.409,6.84 26.665,16.123 36.768,27.849c10.103,11.725 17.888,25.324 23.353,40.795c5.466,15.471 8.199,31.676 8.199,48.613Zm-78.506,-0c0,-7.817 -1.242,-15.472 -3.726,-22.963c-2.485,-7.491 -6.211,-14.087 -11.18,-19.787c-4.968,-5.7 -11.096,-10.341 -18.384,-13.924c-7.287,-3.583 -15.734,-5.375 -25.34,-5.375c-9.275,0 -17.556,1.792 -24.844,5.375c-7.287,3.583 -13.498,8.305 -18.632,14.168c-5.134,5.863 -9.109,12.54 -11.925,20.032c-2.816,7.491 -4.223,15.145 -4.223,22.962c-0,7.817 1.407,15.472 4.223,22.963c2.816,7.492 6.791,14.169 11.925,20.032c5.134,5.862 11.345,10.585 18.632,14.168c7.288,3.583 15.569,5.374 24.844,5.374c9.606,0 18.053,-1.791 25.34,-5.374c7.288,-3.583 13.416,-8.306 18.384,-14.168c4.969,-5.863 8.695,-12.622 11.18,-20.276c2.484,-7.654 3.726,-15.39 3.726,-23.207Zm267.316,-55.209c-3.644,-0.977 -7.205,-1.628 -10.683,-1.954c-3.478,-0.326 -6.873,-0.488 -10.186,-0.488c-10.931,-0 -20.123,1.954 -27.576,5.862c-7.453,3.909 -13.416,8.632 -17.887,14.169c-4.472,5.537 -7.702,11.563 -9.689,18.077c-1.988,6.514 -2.982,12.214 -2.982,17.1l0,125.074l-81.486,-0l0,-243.308l78.505,0l0,35.177l0.994,0c6.294,-12.377 15.237,-22.474 26.831,-30.291c11.594,-7.817 25.009,-11.726 40.246,-11.726c3.313,0 6.542,0.163 9.689,0.489c3.147,0.325 5.714,0.814 7.702,1.465l-3.478,70.354Zm1.623,-32.245c14.575,-13.68 31.551,-23.94 50.929,-30.78c19.378,-6.84 39.17,-10.26 59.376,-10.26c20.868,-0 38.507,2.524 52.916,7.573c14.409,5.048 26.086,12.865 35.029,23.451c8.944,10.586 15.486,23.94 19.627,40.063c4.14,16.123 6.211,35.258 6.211,57.407l-0,122.631l-74.531,-0l0,-25.894l-1.49,-0c-6.294,10.097 -15.817,17.914 -28.57,23.451c-12.753,5.537 -26.583,8.306 -41.489,8.306c-9.937,-0 -20.206,-1.303 -30.806,-3.909c-10.599,-2.606 -20.288,-6.84 -29.066,-12.703c-8.778,-5.863 -15.983,-13.68 -21.614,-23.451c-5.631,-9.771 -8.447,-21.823 -8.447,-36.154c0,-17.589 4.886,-31.757 14.658,-42.506c9.771,-10.748 22.359,-19.054 37.762,-24.917c15.403,-5.863 32.545,-9.771 51.426,-11.726c18.881,-1.954 37.265,-2.931 55.152,-2.931l0,-3.909c0,-12.051 -4.306,-20.927 -12.919,-26.627c-8.612,-5.7 -19.212,-8.55 -31.799,-8.55c-11.594,0 -22.773,2.443 -33.539,7.329c-10.765,4.886 -19.957,10.749 -27.576,17.589l-41.24,-43.483Zm149.557,104.065l-10.434,0c-8.944,0 -17.97,0.407 -27.079,1.222c-9.109,0.814 -17.225,2.361 -24.347,4.641c-7.122,2.28 -13.001,5.619 -17.639,10.016c-4.637,4.397 -6.956,10.178 -6.956,17.344c0,4.56 1.077,8.468 3.23,11.726c2.153,3.257 4.886,5.862 8.198,7.817c3.313,1.954 7.122,3.338 11.428,4.153c4.306,0.814 8.447,1.221 12.422,1.221c16.562,-0 29.232,-4.479 38.01,-13.436c8.778,-8.957 13.167,-21.09 13.167,-36.398l0,-8.306Zm282.222,-58.628c-4.638,-5.863 -10.931,-10.586 -18.881,-14.169c-7.95,-3.583 -16.066,-5.374 -24.347,-5.374c-8.612,0 -16.397,1.71 -23.353,5.13c-6.956,3.42 -12.918,7.98 -17.887,13.68c-4.969,5.7 -8.861,12.296 -11.676,19.787c-2.816,7.491 -4.224,15.471 -4.224,23.94c0,8.468 1.325,16.448 3.975,23.94c2.65,7.491 6.542,14.087 11.677,19.787c5.134,5.7 11.262,10.178 18.384,13.436c7.122,3.257 15.154,4.885 24.098,4.885c8.281,0 16.479,-1.547 24.595,-4.641c8.115,-3.094 14.657,-7.573 19.626,-13.436l45.215,54.231c-10.268,9.772 -23.518,17.426 -39.749,22.963c-16.231,5.537 -33.456,8.306 -51.675,8.306c-19.543,-0 -37.762,-2.931 -54.655,-8.794c-16.894,-5.863 -31.551,-14.413 -43.973,-25.65c-12.422,-11.237 -22.193,-24.836 -29.315,-40.796c-7.122,-15.96 -10.683,-34.037 -10.683,-54.231c0,-19.869 3.561,-37.783 10.683,-53.743c7.122,-15.96 16.893,-29.558 29.315,-40.795c12.422,-11.237 27.079,-19.869 43.973,-25.895c16.893,-6.025 34.946,-9.038 54.158,-9.038c8.944,-0 17.805,0.814 26.583,2.443c8.778,1.628 17.225,3.827 25.34,6.595c8.116,2.769 15.569,6.189 22.359,10.26c6.791,4.072 12.67,8.55 17.639,13.436l-47.202,53.743Zm144.588,-156.343c0,6.189 -1.242,11.97 -3.726,17.345c-2.484,5.374 -5.797,10.015 -9.937,13.924c-4.141,3.908 -9.11,7.003 -14.907,9.283c-5.796,2.28 -11.842,3.42 -18.135,3.42c-13.25,-0 -24.347,-4.316 -33.29,-12.947c-8.944,-8.632 -13.416,-18.973 -13.416,-31.025c0,-5.862 1.159,-11.481 3.478,-16.855c2.319,-5.374 5.631,-10.016 9.938,-13.924c4.306,-3.909 9.274,-7.085 14.906,-9.528c5.631,-2.442 11.759,-3.664 18.384,-3.664c6.293,0 12.339,1.14 18.135,3.42c5.797,2.28 10.766,5.374 14.907,9.283c4.14,3.909 7.453,8.55 9.937,13.924c2.484,5.374 3.726,11.156 3.726,17.344Zm-87.448,320.991l-0,-243.308l81.486,0l-0,243.308l-81.486,-0Zm285.202,-0l0,-132.891c0,-6.84 -0.58,-13.354 -1.739,-19.543c-1.159,-6.189 -3.064,-11.644 -5.714,-16.367c-2.65,-4.723 -6.376,-8.469 -11.18,-11.237c-4.803,-2.769 -10.848,-4.153 -18.135,-4.153c-7.288,0 -13.664,1.384 -19.13,4.153c-5.465,2.768 -10.02,6.596 -13.664,11.481c-3.643,4.886 -6.376,10.504 -8.198,16.856c-1.822,6.351 -2.733,12.947 -2.733,19.787l0,131.914l-81.983,-0l0,-243.308l79.002,0l0,33.711l0.994,0c2.981,-5.211 6.873,-10.341 11.676,-15.39c4.803,-5.048 10.435,-9.364 16.894,-12.947c6.459,-3.583 13.498,-6.514 21.117,-8.794c7.618,-2.28 15.734,-3.42 24.346,-3.42c16.563,0 30.641,2.931 42.234,8.794c11.594,5.863 20.951,13.436 28.073,22.719c7.122,9.283 12.256,19.95 15.403,32.001c3.147,12.052 4.72,24.103 4.72,36.154l0,150.48l-81.983,-0Zm382.589,-22.963c-0,23.777 -3.478,44.46 -10.434,62.048c-6.957,17.589 -16.728,32.165 -29.316,43.727c-12.587,11.563 -27.907,20.195 -45.96,25.895c-18.053,5.7 -38.01,8.55 -59.873,8.55c-21.862,-0 -44.304,-3.258 -67.325,-9.772c-23.022,-6.514 -42.979,-15.96 -59.873,-28.337l40.743,-57.163c11.925,10.423 25.092,18.159 39.501,23.208c14.409,5.048 28.57,7.572 42.482,7.572c23.85,0 41.489,-6.188 52.917,-18.565c11.428,-12.377 17.142,-28.826 17.142,-49.346l-0,-14.657l-1.491,0c-7.618,9.771 -17.887,17.589 -30.806,23.451c-12.918,5.863 -27.659,8.795 -44.221,8.795c-18.881,-0 -35.609,-3.339 -50.184,-10.016c-14.574,-6.677 -26.913,-15.716 -37.016,-27.116c-10.103,-11.4 -17.805,-24.672 -23.105,-39.818c-5.3,-15.146 -7.949,-31.187 -7.949,-48.124c-0,-16.937 2.649,-33.06 7.949,-48.369c5.3,-15.308 13.002,-28.825 23.105,-40.551c10.103,-11.726 22.442,-21.09 37.016,-28.093c14.575,-7.003 31.138,-10.504 49.687,-10.504c15.569,0 30.475,3.094 44.718,9.283c14.244,6.188 25.672,15.797 34.284,28.826l0.994,-0l0,-31.269l77.015,0l-0,220.345Zm-77.512,-100.157c0,-8.143 -1.408,-15.96 -4.223,-23.451c-2.816,-7.492 -6.873,-14.087 -12.173,-19.787c-5.3,-5.7 -11.594,-10.179 -18.881,-13.436c-7.288,-3.257 -15.569,-4.886 -24.844,-4.886c-9.275,0 -17.473,1.629 -24.595,4.886c-7.122,3.257 -13.167,7.654 -18.135,13.192c-4.969,5.537 -8.778,12.051 -11.428,19.542c-2.65,7.492 -3.975,15.472 -3.975,23.94c-0,8.143 1.325,15.96 3.975,23.452c2.65,7.491 6.459,14.087 11.428,19.787c4.968,5.7 11.013,10.26 18.135,13.68c7.122,3.42 15.32,5.13 24.595,5.13c9.275,-0 17.639,-1.71 25.092,-5.13c7.453,-3.42 13.747,-7.899 18.881,-13.436c5.134,-5.537 9.109,-12.051 11.925,-19.543c2.815,-7.491 4.223,-15.471 4.223,-23.94Zm337.374,-77.682l-65.587,-0l0,133.379c0,8.469 0.828,15.472 2.485,21.009c1.656,5.537 4.057,9.853 7.204,12.947c3.147,3.094 6.874,5.211 11.18,6.351c4.306,1.14 8.943,1.71 13.912,1.71c4.638,0 9.523,-0.651 14.658,-1.954c5.134,-1.303 10.02,-3.094 14.657,-5.374l1.491,28.825c-5.962,2.28 -12.173,3.99 -18.633,5.13c-6.459,1.14 -13.498,1.71 -21.116,1.71c-6.294,0 -12.919,-0.814 -19.875,-2.443c-6.956,-1.628 -13.416,-4.722 -19.378,-9.282c-5.963,-4.56 -10.848,-10.749 -14.658,-18.566c-3.809,-7.817 -5.714,-18.077 -5.714,-30.78l0,-142.662l-48.196,-0l0,-27.849l48.196,0l0,-64.491l33.787,-0l0,64.491l65.587,0l-0,27.849Zm65.09,9.771c6.293,-13.354 16.728,-23.94 31.302,-31.757c14.575,-7.817 30.144,-11.726 46.706,-11.726c29.481,0 51.592,8.632 66.332,25.895c14.74,17.262 22.111,40.062 22.111,68.399l-0,140.22l-33.787,-0l-0,-126.54c-0,-12.051 -0.994,-22.963 -2.982,-32.734c-1.987,-9.771 -5.382,-18.158 -10.185,-25.161c-4.803,-7.003 -11.263,-12.459 -19.378,-16.367c-8.116,-3.909 -18.302,-5.863 -30.558,-5.863c-8.943,-0 -17.638,1.791 -26.085,5.374c-8.447,3.583 -15.983,9.039 -22.608,16.367c-6.625,7.329 -11.925,16.612 -15.9,27.849c-3.975,11.237 -5.962,24.51 -5.962,39.818l0,117.257l-33.787,-0l-0,-369.359l33.787,0l0,178.328l0.994,0Zm442.213,69.866l-0,7.328c-0,2.606 -0.166,5.374 -0.497,8.306l-192.785,-0c0.331,11.4 2.65,22.148 6.956,32.245c4.306,10.097 10.269,18.892 17.887,26.383c7.619,7.492 16.563,13.436 26.831,17.833c10.269,4.397 21.366,6.596 33.29,6.596c17.556,-0 32.711,-3.99 45.464,-11.97c12.753,-7.98 22.442,-17.182 29.067,-27.605l25.34,19.543c-13.912,17.263 -29.232,29.64 -45.96,37.132c-16.728,7.491 -34.698,11.237 -53.911,11.237c-17.224,-0 -33.207,-3.013 -47.947,-9.039c-14.741,-6.026 -27.411,-14.413 -38.011,-25.161c-10.6,-10.749 -18.964,-23.452 -25.092,-38.109c-6.128,-14.657 -9.192,-30.617 -9.192,-47.88c0,-17.262 2.981,-33.222 8.944,-47.879c5.962,-14.657 14.243,-27.36 24.843,-38.109c10.6,-10.748 23.022,-19.135 37.265,-25.161c14.244,-6.026 29.647,-9.039 46.209,-9.039c18.219,0 34.284,3.013 48.196,9.039c13.913,6.026 25.506,14.168 34.781,24.428c9.275,10.26 16.314,22.23 21.117,35.91c4.803,13.68 7.205,28.337 7.205,43.972Zm-34.284,-10.749c-0.994,-21.497 -8.033,-39.33 -21.117,-53.498c-13.084,-14.169 -31.717,-21.253 -55.898,-21.253c-11.262,-0 -21.696,2.035 -31.303,6.107c-9.606,4.071 -18.052,9.608 -25.34,16.611c-7.287,7.003 -13.084,14.983 -17.39,23.94c-4.306,8.957 -6.791,18.322 -7.453,28.093l158.501,-0Zm261.353,-189.077c-0,6.189 -1.243,11.97 -3.727,17.345c-2.484,5.374 -5.797,10.015 -9.937,13.924c-4.141,3.908 -9.11,7.003 -14.906,9.283c-5.797,2.28 -11.842,3.42 -18.136,3.42c-13.25,-0 -24.347,-4.316 -33.29,-12.947c-8.944,-8.632 -13.416,-18.973 -13.416,-31.025c0,-5.862 1.16,-11.481 3.478,-16.855c2.319,-5.374 5.632,-10.016 9.938,-13.924c4.306,-3.909 9.275,-7.085 14.906,-9.528c5.631,-2.442 11.759,-3.664 18.384,-3.664c6.294,0 12.339,1.14 18.136,3.42c5.796,2.28 10.765,5.374 14.906,9.283c4.14,3.909 7.453,8.55 9.937,13.924c2.484,5.374 3.727,11.156 3.727,17.344Zm-5.963,327.342c0,14.983 -1.408,29.233 -4.223,42.75c-2.816,13.517 -7.867,25.324 -15.155,35.421c-7.287,10.098 -17.39,18.078 -30.309,23.94c-12.918,5.863 -29.315,8.795 -49.19,8.795c-5.631,-0 -11.759,-0.326 -18.384,-0.978c-6.625,-0.651 -12.256,-1.628 -16.893,-2.931l5.465,-66.934c2.981,0.977 6.045,1.629 9.192,1.954c3.147,0.326 5.88,0.489 8.199,0.489c11.924,-0 19.874,-3.99 23.849,-11.97c3.975,-7.98 5.963,-18.159 5.963,-30.536l-0,-249.659l81.486,0l0,249.659Zm303.587,-128.982c-0,19.868 -3.644,37.864 -10.931,53.987c-7.288,16.123 -17.225,29.803 -29.812,41.04c-12.588,11.237 -27.163,19.95 -43.725,26.138c-16.562,6.189 -34.284,9.283 -53.165,9.283c-18.55,-0 -36.188,-3.094 -52.916,-9.283c-16.728,-6.188 -31.303,-14.901 -43.725,-26.138c-12.421,-11.237 -22.276,-24.917 -29.563,-41.04c-7.288,-16.123 -10.931,-34.119 -10.931,-53.987c-0,-19.869 3.643,-37.783 10.931,-53.743c7.287,-15.96 17.142,-29.477 29.563,-40.551c12.422,-11.074 26.997,-19.543 43.725,-25.406c16.728,-5.863 34.366,-8.794 52.916,-8.794c18.881,-0 36.603,2.931 53.165,8.794c16.562,5.863 31.137,14.332 43.725,25.406c12.587,11.074 22.524,24.591 29.812,40.551c7.287,15.96 10.931,33.874 10.931,53.743Zm-78.505,-0c-0,-7.817 -1.325,-15.472 -3.975,-22.963c-2.65,-7.491 -6.46,-14.087 -11.428,-19.787c-4.969,-5.7 -11.097,-10.341 -18.384,-13.924c-7.288,-3.583 -15.735,-5.375 -25.341,-5.375c-9.606,0 -18.053,1.792 -25.34,5.375c-7.287,3.583 -13.333,8.224 -18.136,13.924c-4.803,5.7 -8.447,12.296 -10.931,19.787c-2.484,7.491 -3.726,15.146 -3.726,22.963c-0,7.817 1.242,15.471 3.726,22.963c2.484,7.491 6.211,14.25 11.18,20.275c4.968,6.026 11.096,10.83 18.384,14.413c7.287,3.583 15.734,5.374 25.34,5.374c9.606,0 18.053,-1.791 25.34,-5.374c7.288,-3.583 13.416,-8.387 18.385,-14.413c4.968,-6.025 8.695,-12.784 11.179,-20.275c2.484,-7.492 3.727,-15.146 3.727,-22.963Zm269.799,122.631l0,-33.711l-0.994,-0c-2.981,5.537 -6.873,10.748 -11.676,15.634c-4.803,4.885 -10.434,9.12 -16.893,12.703c-6.46,3.582 -13.582,6.514 -21.366,8.794c-7.784,2.28 -15.982,3.42 -24.595,3.42c-16.562,-0 -30.557,-2.932 -41.985,-8.794c-11.428,-5.863 -20.703,-13.436 -27.825,-22.719c-7.122,-9.283 -12.256,-19.868 -15.403,-31.757c-3.147,-11.889 -4.72,-24.021 -4.72,-36.398l-0,-150.48l81.983,0l0,131.914c0,6.84 0.497,13.354 1.491,19.543c0.994,6.188 2.898,11.725 5.714,16.611c2.815,4.886 6.542,8.713 11.179,11.481c4.638,2.769 10.766,4.153 18.385,4.153c14.243,0 25.091,-5.211 32.544,-15.634c7.453,-10.423 11.18,-22.637 11.18,-36.643l-0,-131.425l81.486,0l0,243.308l-78.505,-0Zm279.24,-177.84c-3.643,-0.977 -7.204,-1.628 -10.682,-1.954c-3.478,-0.326 -6.874,-0.488 -10.186,-0.488c-10.931,-0 -20.123,1.954 -27.576,5.862c-7.453,3.909 -13.416,8.632 -17.888,14.169c-4.471,5.537 -7.701,11.563 -9.689,18.077c-1.987,6.514 -2.981,12.214 -2.981,17.1l0,125.074l-81.486,-0l-0,-243.308l78.505,0l-0,35.177l0.994,0c6.293,-12.377 15.237,-22.474 26.831,-30.291c11.593,-7.817 25.009,-11.726 40.246,-11.726c3.312,0 6.542,0.163 9.689,0.489c3.147,0.325 5.714,0.814 7.701,1.465l-3.478,70.354Zm175.395,177.84l-0,-132.891c-0,-6.84 -0.58,-13.354 -1.739,-19.543c-1.16,-6.189 -3.064,-11.644 -5.714,-16.367c-2.65,-4.723 -6.377,-8.469 -11.18,-11.237c-4.803,-2.769 -10.848,-4.153 -18.135,-4.153c-7.288,0 -13.664,1.384 -19.13,4.153c-5.465,2.768 -10.02,6.596 -13.664,11.481c-3.643,4.886 -6.376,10.504 -8.198,16.856c-1.822,6.351 -2.733,12.947 -2.733,19.787l0,131.914l-81.983,-0l-0,-243.308l79.002,0l-0,33.711l0.994,0c2.981,-5.211 6.873,-10.341 11.676,-15.39c4.803,-5.048 10.434,-9.364 16.894,-12.947c6.459,-3.583 13.498,-6.514 21.117,-8.794c7.618,-2.28 15.734,-3.42 24.346,-3.42c16.562,0 30.64,2.931 42.234,8.794c11.593,5.863 20.951,13.436 28.073,22.719c7.122,9.283 12.256,19.95 15.403,32.001c3.147,12.052 4.72,24.103 4.72,36.154l0,150.48l-81.983,-0Zm365.695,-118.723l0,9.772c0,3.257 -0.166,6.351 -0.497,9.283l-179.369,-0c0.662,6.84 2.732,13.028 6.211,18.565c3.478,5.537 7.949,10.342 13.415,14.413c5.466,4.071 11.594,7.247 18.384,9.527c6.791,2.28 13.83,3.42 21.117,3.42c12.919,0 23.85,-2.361 32.793,-7.084c8.944,-4.723 16.231,-10.83 21.863,-18.321l56.643,35.177c-11.594,16.611 -26.914,29.395 -45.961,38.352c-19.046,8.957 -41.157,13.436 -66.332,13.436c-18.549,-0 -36.106,-2.85 -52.668,-8.55c-16.562,-5.7 -31.054,-14.006 -43.476,-24.917c-12.421,-10.911 -22.193,-24.347 -29.315,-40.307c-7.122,-15.96 -10.683,-34.2 -10.683,-54.72c0,-19.868 3.478,-37.864 10.435,-53.987c6.956,-16.123 16.396,-29.803 28.321,-41.04c11.925,-11.237 26.003,-19.95 42.234,-26.138c16.231,-6.189 33.787,-9.283 52.668,-9.283c18.218,-0 34.946,3.013 50.184,9.038c15.237,6.026 28.321,14.739 39.252,26.139c10.931,11.4 19.461,25.243 25.589,41.528c6.128,16.286 9.192,34.852 9.192,55.697Zm-75.027,-30.78c-0,-12.702 -4.058,-23.614 -12.173,-32.734c-8.116,-9.12 -20.289,-13.68 -36.52,-13.68c-7.95,0 -15.238,1.222 -21.862,3.665c-6.625,2.442 -12.422,5.781 -17.391,10.015c-4.969,4.235 -8.943,9.202 -11.925,14.902c-2.981,5.7 -4.637,11.644 -4.968,17.832l104.839,0Zm241.975,186.146c-4.969,12.702 -10.517,24.021 -16.645,33.955c-6.128,9.934 -13.416,18.403 -21.862,25.406c-8.447,7.003 -18.385,12.296 -29.813,15.878c-11.428,3.583 -24.926,5.375 -40.494,5.375c-7.619,-0 -15.486,-0.489 -23.602,-1.466c-8.115,-0.977 -15.154,-2.28 -21.117,-3.909l8.944,-67.422c3.975,1.303 8.364,2.361 13.167,3.175c4.803,0.815 9.192,1.222 13.167,1.222c12.587,-0 21.697,-2.85 27.328,-8.55c5.631,-5.7 10.434,-13.762 14.409,-24.184l7.95,-20.032l-103.349,-239.399l90.43,0l55.153,156.342l1.49,0l49.19,-156.342l86.456,0l-110.802,279.951Zm237.006,-265.294l56.146,185.657l0.994,-0l62.605,-185.657l32.794,0l63.599,185.657l0.994,-0l55.649,-185.657l35.774,0l-73.536,228.651l-36.768,-0l-62.109,-185.168l-0.994,-0l-61.114,185.168l-36.769,-0l-73.536,-228.651l36.271,0Zm377.123,228.651l-33.787,-0l0,-228.651l33.787,0l0,228.651Zm6.956,-316.593c0,6.84 -2.484,12.458 -7.453,16.855c-4.968,4.397 -10.434,6.596 -16.396,6.596c-5.963,-0 -11.428,-2.199 -16.397,-6.596c-4.969,-4.397 -7.453,-10.015 -7.453,-16.855c0,-6.84 2.484,-12.459 7.453,-16.856c4.969,-4.397 10.434,-6.596 16.397,-6.596c5.962,0 11.428,2.199 16.396,6.596c4.969,4.397 7.453,10.016 7.453,16.856Zm164.464,115.791l-65.587,-0l0,133.379c0,8.469 0.828,15.472 2.485,21.009c1.656,5.537 4.057,9.853 7.204,12.947c3.147,3.094 6.874,5.211 11.18,6.351c4.306,1.14 8.943,1.71 13.912,1.71c4.638,0 9.523,-0.651 14.658,-1.954c5.134,-1.303 10.02,-3.094 14.657,-5.374l1.491,28.825c-5.963,2.28 -12.173,3.99 -18.633,5.13c-6.459,1.14 -13.498,1.71 -21.117,1.71c-6.293,0 -12.918,-0.814 -19.874,-2.443c-6.956,-1.628 -13.416,-4.722 -19.378,-9.282c-5.963,-4.56 -10.848,-10.749 -14.658,-18.566c-3.809,-7.817 -5.714,-18.077 -5.714,-30.78l0,-142.662l-48.196,-0l-0,-27.849l48.196,0l0,-64.491l33.787,-0l0,64.491l65.587,0l-0,27.849Zm65.09,9.771c6.293,-13.354 16.728,-23.94 31.302,-31.757c14.575,-7.817 30.144,-11.726 46.706,-11.726c29.481,0 51.592,8.632 66.332,25.895c14.74,17.262 22.111,40.062 22.111,68.399l-0,140.22l-33.787,-0l-0,-126.54c-0,-12.051 -0.994,-22.963 -2.982,-32.734c-1.987,-9.771 -5.382,-18.158 -10.185,-25.161c-4.804,-7.003 -11.263,-12.459 -19.378,-16.367c-8.116,-3.909 -18.302,-5.863 -30.558,-5.863c-8.943,-0 -17.639,1.791 -26.085,5.374c-8.447,3.583 -15.983,9.039 -22.608,16.367c-6.625,7.329 -11.925,16.612 -15.9,27.849c-3.975,11.237 -5.962,24.51 -5.962,39.818l-0,117.257l-33.787,-0l-0,-369.359l33.787,0l-0,178.328l0.994,0Zm411.407,155.365l0.994,0l72.045,-192.985l36.769,0l-115.771,287.768c-6.956,17.588 -15.817,31.675 -26.582,42.261c-10.766,10.586 -26.251,15.879 -46.457,15.879c-10.269,-0 -20.372,-0.978 -30.309,-2.932l3.478,-30.291c7.95,2.606 16.231,3.908 24.843,3.908c11.594,0 20.703,-3.501 27.328,-10.504c6.625,-7.003 12.422,-17.018 17.39,-30.047l18.881,-47.88l-99.373,-228.162l37.762,0l79.002,192.985Zm370.167,-78.66c-0,17.263 -3.064,33.223 -9.192,47.88c-6.128,14.657 -14.658,27.36 -25.589,38.109c-10.931,10.748 -24.015,19.135 -39.253,25.161c-15.237,6.026 -31.965,9.039 -50.183,9.039c-17.888,-0 -34.45,-3.013 -49.687,-9.039c-15.237,-6.026 -28.322,-14.413 -39.253,-25.161c-10.931,-10.749 -19.46,-23.452 -25.589,-38.109c-6.128,-14.657 -9.192,-30.617 -9.192,-47.88c0,-17.262 3.064,-33.222 9.192,-47.879c6.129,-14.657 14.658,-27.36 25.589,-38.109c10.931,-10.748 24.016,-19.135 39.253,-25.161c15.237,-6.026 31.799,-9.039 49.687,-9.039c18.218,0 34.946,3.013 50.183,9.039c15.238,6.026 28.322,14.413 39.253,25.161c10.931,10.749 19.461,23.452 25.589,38.109c6.128,14.657 9.192,30.617 9.192,47.879Zm-35.775,0c0,-12.702 -2.07,-24.672 -6.211,-35.909c-4.14,-11.237 -10.02,-21.009 -17.638,-29.315c-7.619,-8.305 -16.894,-14.901 -27.825,-19.787c-10.931,-4.885 -23.187,-7.328 -36.768,-7.328c-13.581,-0 -25.755,2.443 -36.52,7.328c-10.766,4.886 -19.958,11.482 -27.576,19.787c-7.619,8.306 -13.499,18.078 -17.639,29.315c-4.141,11.237 -6.211,23.207 -6.211,35.909c-0,12.703 2.07,24.673 6.211,35.91c4.14,11.237 10.02,21.009 17.639,29.315c7.618,8.305 16.81,14.82 27.576,19.542c10.765,4.723 22.939,7.085 36.52,7.085c13.581,-0 25.837,-2.362 36.768,-7.085c10.931,-4.722 20.206,-11.237 27.825,-19.542c7.618,-8.306 13.498,-18.078 17.638,-29.315c4.141,-11.237 6.211,-23.207 6.211,-35.91Zm253.9,114.326c-0.662,-6.189 -1.159,-13.029 -1.491,-20.52c-0.331,-7.491 -0.496,-13.68 -0.496,-18.566l-0.994,0c-6.625,13.354 -17.391,24.184 -32.297,32.49c-14.906,8.306 -30.64,12.459 -47.202,12.459c-29.481,-0 -51.592,-8.632 -66.332,-25.895c-14.74,-17.262 -22.111,-40.062 -22.111,-68.399l0,-140.22l33.787,0l0,126.54c0,12.051 0.994,22.963 2.982,32.734c1.987,9.771 5.382,18.158 10.185,25.161c4.803,7.003 11.263,12.459 19.378,16.367c8.116,3.909 18.302,5.863 30.558,5.863c8.943,0 17.638,-1.791 26.085,-5.374c8.447,-3.583 15.983,-9.039 22.608,-16.367c6.625,-7.329 11.925,-16.612 15.9,-27.849c3.975,-11.237 5.962,-24.51 5.962,-39.818l-0,-117.257l33.787,0l0,178.328c0,6.189 0.166,14.169 0.497,23.94c0.331,9.771 0.828,18.566 1.491,26.383l-32.297,-0Zm408.923,-121.165l-0,7.328c-0,2.606 -0.166,5.374 -0.497,8.306l-192.785,-0c0.331,11.4 2.65,22.148 6.956,32.245c4.306,10.097 10.269,18.892 17.887,26.383c7.619,7.492 16.563,13.436 26.831,17.833c10.269,4.397 21.366,6.596 33.29,6.596c17.557,-0 32.711,-3.99 45.464,-11.97c12.753,-7.98 22.442,-17.182 29.067,-27.605l25.34,19.543c-13.912,17.263 -29.232,29.64 -45.96,37.132c-16.728,7.491 -34.698,11.237 -53.911,11.237c-17.224,-0 -33.207,-3.013 -47.947,-9.039c-14.741,-6.026 -27.411,-14.413 -38.011,-25.161c-10.6,-10.749 -18.964,-23.452 -25.092,-38.109c-6.128,-14.657 -9.192,-30.617 -9.192,-47.88c0,-17.262 2.982,-33.222 8.944,-47.879c5.962,-14.657 14.244,-27.36 24.843,-38.109c10.6,-10.748 23.022,-19.135 37.266,-25.161c14.243,-6.026 29.646,-9.039 46.208,-9.039c18.219,0 34.284,3.013 48.197,9.039c13.912,6.026 25.505,14.168 34.78,24.428c9.275,10.26 16.314,22.23 21.117,35.91c4.803,13.68 7.205,28.337 7.205,43.972Zm-34.284,-10.749c-0.994,-21.497 -8.033,-39.33 -21.117,-53.498c-13.084,-14.169 -31.717,-21.253 -55.898,-21.253c-11.262,-0 -21.696,2.035 -31.302,6.107c-9.607,4.071 -18.053,9.608 -25.341,16.611c-7.287,7.003 -13.084,14.983 -17.39,23.94c-4.306,8.957 -6.791,18.322 -7.453,28.093l158.501,-0Zm178.873,131.914l-37.266,-0l-94.901,-228.651l37.762,0l75.524,193.474l0.993,-0l76.021,-193.474l36.272,0l-94.405,228.651Zm335.386,-121.165l-0,7.328c-0,2.606 -0.166,5.374 -0.497,8.306l-192.785,-0c0.331,11.4 2.65,22.148 6.956,32.245c4.306,10.097 10.269,18.892 17.887,26.383c7.619,7.492 16.563,13.436 26.831,17.833c10.269,4.397 21.366,6.596 33.29,6.596c17.556,-0 32.711,-3.99 45.464,-11.97c12.753,-7.98 22.442,-17.182 29.067,-27.605l25.34,19.543c-13.912,17.263 -29.232,29.64 -45.96,37.132c-16.728,7.491 -34.698,11.237 -53.911,11.237c-17.224,-0 -33.207,-3.013 -47.947,-9.039c-14.741,-6.026 -27.411,-14.413 -38.011,-25.161c-10.6,-10.749 -18.964,-23.452 -25.092,-38.109c-6.128,-14.657 -9.192,-30.617 -9.192,-47.88c0,-17.262 2.981,-33.222 8.944,-47.879c5.962,-14.657 14.243,-27.36 24.843,-38.109c10.6,-10.748 23.022,-19.135 37.265,-25.161c14.244,-6.026 29.647,-9.039 46.209,-9.039c18.219,0 34.284,3.013 48.196,9.039c13.913,6.026 25.506,14.168 34.781,24.428c9.275,10.26 16.314,22.23 21.117,35.91c4.803,13.68 7.205,28.337 7.205,43.972Zm-34.284,-10.749c-0.994,-21.497 -8.033,-39.33 -21.117,-53.498c-13.084,-14.169 -31.717,-21.253 -55.898,-21.253c-11.262,-0 -21.696,2.035 -31.302,6.107c-9.607,4.071 -18.053,9.608 -25.341,16.611c-7.287,7.003 -13.084,14.983 -17.39,23.94c-4.306,8.957 -6.791,18.322 -7.453,28.093l158.501,-0Zm682.697,-42.506c-4.969,-9.445 -12.504,-17.181 -22.607,-23.207c-10.103,-6.025 -21.614,-9.038 -34.533,-9.038c-5.962,-0 -11.925,0.651 -17.887,1.954c-5.962,1.303 -11.262,3.42 -15.9,6.351c-4.637,2.932 -8.364,6.678 -11.179,11.238c-2.816,4.56 -4.224,9.934 -4.224,16.122c0,10.749 4.472,18.973 13.416,24.673c8.943,5.7 23.021,10.504 42.234,14.413c27.493,5.537 47.782,13.599 60.866,24.184c13.084,10.586 19.626,24.836 19.626,42.75c0,13.029 -2.567,24.021 -7.701,32.979c-5.135,8.957 -11.842,16.285 -20.123,21.985c-8.282,5.7 -17.639,9.772 -28.073,12.214c-10.435,2.443 -20.952,3.665 -31.552,3.665c-17.556,-0 -34.615,-3.583 -51.177,-10.749c-16.562,-7.166 -30.143,-18.403 -40.743,-33.711l26.831,-19.543c5.962,10.097 14.74,18.566 26.334,25.406c11.593,6.84 24.346,10.26 38.259,10.26c7.287,-0 14.243,-0.652 20.868,-1.955c6.625,-1.303 12.422,-3.582 17.39,-6.84c4.969,-3.257 8.944,-7.41 11.925,-12.458c2.981,-5.049 4.472,-11.319 4.472,-18.81c0,-12.051 -5.88,-21.09 -17.639,-27.116c-11.759,-6.025 -28.735,-11.644 -50.929,-16.855c-6.956,-1.629 -14.326,-3.665 -22.11,-6.108c-7.785,-2.442 -14.989,-6.025 -21.614,-10.748c-6.625,-4.723 -12.091,-10.667 -16.397,-17.833c-4.306,-7.166 -6.459,-16.123 -6.459,-26.871c-0,-11.726 2.319,-21.742 6.956,-30.047c4.637,-8.306 10.848,-15.146 18.633,-20.52c7.784,-5.374 16.645,-9.364 26.582,-11.97c9.937,-2.606 20.206,-3.909 30.806,-3.909c16.231,0 31.965,3.583 47.202,10.749c15.238,7.166 26.666,17.263 34.284,30.291l-25.837,19.054Zm178.376,-26.382l-65.587,-0l0,133.379c0,8.469 0.828,15.472 2.485,21.009c1.656,5.537 4.057,9.853 7.204,12.947c3.147,3.094 6.874,5.211 11.18,6.351c4.306,1.14 8.943,1.71 13.912,1.71c4.638,0 9.523,-0.651 14.658,-1.954c5.134,-1.303 10.02,-3.094 14.657,-5.374l1.491,28.825c-5.962,2.28 -12.173,3.99 -18.633,5.13c-6.459,1.14 -13.498,1.71 -21.117,1.71c-6.293,0 -12.918,-0.814 -19.874,-2.443c-6.956,-1.628 -13.416,-4.722 -19.378,-9.282c-5.963,-4.56 -10.848,-10.749 -14.658,-18.566c-3.809,-7.817 -5.714,-18.077 -5.714,-30.78l0,-142.662l-48.196,-0l-0,-27.849l48.196,0l0,-64.491l33.787,-0l0,64.491l65.587,0l-0,27.849Zm240.981,79.637l0,7.328c0,2.606 -0.165,5.374 -0.497,8.306l-192.785,-0c0.332,11.4 2.65,22.148 6.956,32.245c4.307,10.097 10.269,18.892 17.888,26.383c7.618,7.492 16.562,13.436 26.831,17.833c10.268,4.397 21.365,6.596 33.29,6.596c17.556,-0 32.71,-3.99 45.463,-11.97c12.753,-7.98 22.442,-17.182 29.067,-27.605l25.34,19.543c-13.912,17.263 -29.232,29.64 -45.96,37.132c-16.728,7.491 -34.698,11.237 -53.91,11.237c-17.225,-0 -33.208,-3.013 -47.948,-9.039c-14.74,-6.026 -27.411,-14.413 -38.01,-25.161c-10.6,-10.749 -18.964,-23.452 -25.092,-38.109c-6.128,-14.657 -9.192,-30.617 -9.192,-47.88c-0,-17.262 2.981,-33.222 8.943,-47.879c5.963,-14.657 14.244,-27.36 24.844,-38.109c10.6,-10.748 23.021,-19.135 37.265,-25.161c14.243,-6.026 29.646,-9.039 46.209,-9.039c18.218,0 34.284,3.013 48.196,9.039c13.912,6.026 25.506,14.168 34.781,24.428c9.275,10.26 16.313,22.23 21.117,35.91c4.803,13.68 7.204,28.337 7.204,43.972Zm-34.284,-10.749c-0.994,-21.497 -8.032,-39.33 -21.117,-53.498c-13.084,-14.169 -31.716,-21.253 -55.897,-21.253c-11.263,-0 -21.697,2.035 -31.303,6.107c-9.606,4.071 -18.053,9.608 -25.34,16.611c-7.288,7.003 -13.085,14.983 -17.391,23.94c-4.306,8.957 -6.79,18.322 -7.453,28.093l158.501,-0Zm117.261,249.171l-33.787,-0l0,-345.908l33.787,0l0,39.574l1.491,0c9.606,-14.983 22.442,-26.301 38.507,-33.955c16.065,-7.655 32.379,-11.482 48.942,-11.482c18.218,0 34.698,3.095 49.438,9.283c14.74,6.189 27.328,14.657 37.762,25.406c10.434,10.748 18.55,23.451 24.347,38.108c5.796,14.657 8.695,30.454 8.695,47.391c-0,16.938 -2.899,32.735 -8.695,47.392c-5.797,14.657 -13.913,27.36 -24.347,38.108c-10.434,10.749 -23.022,19.217 -37.762,25.406c-14.74,6.188 -31.22,9.283 -49.438,9.283c-16.563,-0 -32.877,-3.827 -48.942,-11.482c-16.065,-7.654 -28.901,-18.647 -38.507,-32.978l-1.491,-0l0,155.854Zm173.407,-231.583c0,-12.702 -1.987,-24.672 -5.962,-35.909c-3.975,-11.237 -9.689,-21.009 -17.142,-29.315c-7.453,-8.305 -16.645,-14.901 -27.576,-19.787c-10.931,-4.885 -23.353,-7.328 -37.265,-7.328c-12.919,-0 -24.844,2.361 -35.775,7.084c-10.931,4.723 -20.372,11.237 -28.321,19.543c-7.95,8.306 -14.161,18.077 -18.633,29.314c-4.472,11.237 -6.708,23.37 -6.708,36.398c0,13.029 2.236,25.162 6.708,36.399c4.472,11.237 10.683,20.927 18.633,29.07c7.949,8.143 17.39,14.576 28.321,19.298c10.931,4.723 22.856,7.085 35.775,7.085c13.912,-0 26.334,-2.362 37.265,-7.085c10.931,-4.722 20.123,-11.237 27.576,-19.542c7.453,-8.306 13.167,-18.078 17.142,-29.315c3.975,-11.237 5.962,-23.207 5.962,-35.91Zm416.873,0c-0,17.263 -3.064,33.223 -9.192,47.88c-6.128,14.657 -14.658,27.36 -25.589,38.109c-10.931,10.748 -24.015,19.135 -39.252,25.161c-15.238,6.026 -31.966,9.039 -50.184,9.039c-17.887,-0 -34.45,-3.013 -49.687,-9.039c-15.237,-6.026 -28.322,-14.413 -39.253,-25.161c-10.931,-10.749 -19.46,-23.452 -25.588,-38.109c-6.128,-14.657 -9.192,-30.617 -9.192,-47.88c-0,-17.262 3.064,-33.222 9.192,-47.879c6.128,-14.657 14.657,-27.36 25.588,-38.109c10.931,-10.748 24.016,-19.135 39.253,-25.161c15.237,-6.026 31.8,-9.039 49.687,-9.039c18.218,0 34.946,3.013 50.184,9.039c15.237,6.026 28.321,14.413 39.252,25.161c10.931,10.749 19.461,23.452 25.589,38.109c6.128,14.657 9.192,30.617 9.192,47.879Zm-35.775,0c0,-12.702 -2.07,-24.672 -6.21,-35.909c-4.141,-11.237 -10.021,-21.009 -17.639,-29.315c-7.619,-8.305 -16.894,-14.901 -27.825,-19.787c-10.931,-4.885 -23.187,-7.328 -36.768,-7.328c-13.581,-0 -25.755,2.443 -36.52,7.328c-10.766,4.886 -19.958,11.482 -27.576,19.787c-7.619,8.306 -13.498,18.078 -17.639,29.315c-4.141,11.237 -6.211,23.207 -6.211,35.909c0,12.703 2.07,24.673 6.211,35.91c4.141,11.237 10.02,21.009 17.639,29.315c7.618,8.305 16.81,14.82 27.576,19.542c10.765,4.723 22.939,7.085 36.52,7.085c13.581,-0 25.837,-2.362 36.768,-7.085c10.931,-4.722 20.206,-11.237 27.825,-19.542c7.618,-8.306 13.498,-18.078 17.639,-29.315c4.14,-11.237 6.21,-23.207 6.21,-35.91Zm183.345,-86.476l-54.656,-0l0,200.802l-33.787,-0l0,-200.802l-48.693,-0l0,-27.849l48.693,0l0,-62.537c0,-26.057 6.46,-46.577 19.378,-61.56c12.919,-14.982 32.793,-22.474 59.624,-22.474c4.307,0 8.944,0.244 13.913,0.733c4.968,0.489 9.606,1.384 13.912,2.687l-5.962,29.314c-3.644,-0.977 -7.288,-1.791 -10.932,-2.442c-3.643,-0.652 -7.784,-0.978 -12.421,-0.978c-8.944,0 -16.314,1.466 -22.111,4.398c-5.797,2.931 -10.269,7.084 -13.415,12.458c-3.147,5.374 -5.3,11.644 -6.46,18.81c-1.159,7.166 -1.739,14.82 -1.739,22.963l0,58.628l54.656,0l-0,27.849Zm242.273,-0l-65.587,-0l-0,133.379c-0,8.469 0.828,15.472 2.484,21.009c1.656,5.537 4.058,9.853 7.205,12.947c3.147,3.094 6.873,5.211 11.179,6.351c4.307,1.14 8.944,1.71 13.913,1.71c4.637,0 9.523,-0.651 14.657,-1.954c5.135,-1.303 10.02,-3.094 14.658,-5.374l1.491,28.825c-5.963,2.28 -12.174,3.99 -18.633,5.13c-6.459,1.14 -13.498,1.71 -21.117,1.71c-6.294,0 -12.919,-0.814 -19.875,-2.443c-6.956,-1.628 -13.415,-4.722 -19.378,-9.282c-5.962,-4.56 -10.848,-10.749 -14.657,-18.566c-3.81,-7.817 -5.714,-18.077 -5.714,-30.78l-0,-142.662l-48.196,-0l-0,-27.849l48.196,0l-0,-64.491l33.787,-0l-0,64.491l65.587,0l-0,27.849Zm65.089,9.771c6.294,-13.354 16.728,-23.94 31.303,-31.757c14.575,-7.817 30.143,-11.726 46.706,-11.726c29.48,0 51.591,8.632 66.332,25.895c14.74,17.262 22.11,40.062 22.11,68.399l0,140.22l-33.787,-0l0,-126.54c0,-12.051 -0.994,-22.963 -2.981,-32.734c-1.988,-9.771 -5.383,-18.158 -10.186,-25.161c-4.803,-7.003 -11.262,-12.459 -19.378,-16.367c-8.115,-3.909 -18.301,-5.863 -30.557,-5.863c-8.944,-0 -17.639,1.791 -26.086,5.374c-8.446,3.583 -15.982,9.039 -22.607,16.367c-6.625,7.329 -11.925,16.612 -15.9,27.849c-3.975,11.237 -5.962,24.51 -5.962,39.818l-0,117.257l-33.788,-0l0,-369.359l33.788,0l-0,178.328l0.993,0Zm442.213,69.866l0,7.328c0,2.606 -0.165,5.374 -0.497,8.306l-192.785,-0c0.332,11.4 2.65,22.148 6.957,32.245c4.306,10.097 10.268,18.892 17.887,26.383c7.618,7.492 16.562,13.436 26.831,17.833c10.268,4.397 21.365,6.596 33.29,6.596c17.556,-0 32.71,-3.99 45.463,-11.97c12.753,-7.98 22.442,-17.182 29.067,-27.605l25.34,19.543c-13.912,17.263 -29.232,29.64 -45.96,37.132c-16.728,7.491 -34.698,11.237 -53.91,11.237c-17.225,-0 -33.207,-3.013 -47.948,-9.039c-14.74,-6.026 -27.41,-14.413 -38.01,-25.161c-10.6,-10.749 -18.964,-23.452 -25.092,-38.109c-6.128,-14.657 -9.192,-30.617 -9.192,-47.88c-0,-17.262 2.981,-33.222 8.943,-47.879c5.963,-14.657 14.244,-27.36 24.844,-38.109c10.6,-10.748 23.021,-19.135 37.265,-25.161c14.243,-6.026 29.646,-9.039 46.209,-9.039c18.218,0 34.284,3.013 48.196,9.039c13.912,6.026 25.506,14.168 34.781,24.428c9.275,10.26 16.314,22.23 21.117,35.91c4.803,13.68 7.204,28.337 7.204,43.972Zm-34.284,-10.749c-0.993,-21.497 -8.032,-39.33 -21.117,-53.498c-13.084,-14.169 -31.716,-21.253 -55.897,-21.253c-11.263,-0 -21.697,2.035 -31.303,6.107c-9.606,4.071 -18.053,9.608 -25.34,16.611c-7.288,7.003 -13.085,14.983 -17.391,23.94c-4.306,8.957 -6.79,18.322 -7.453,28.093l158.501,-0Zm188.81,-96.737l56.146,185.657l0.994,-0l62.606,-185.657l32.793,0l63.599,185.657l0.994,-0l55.649,-185.657l35.775,0l-73.537,228.651l-36.768,-0l-62.109,-185.168l-0.993,-0l-61.115,185.168l-36.769,-0l-73.536,-228.651l36.271,0Zm489.416,81.103c-0,-19.869 -5.3,-34.689 -15.9,-44.46c-10.6,-9.772 -26.003,-14.657 -46.209,-14.657c-13.912,-0 -26.831,2.443 -38.756,7.328c-11.924,4.886 -22.027,11.4 -30.308,19.543l-18.882,-21.986c9.607,-9.445 22.277,-17.262 38.011,-23.451c15.734,-6.188 33.539,-9.283 53.413,-9.283c12.588,0 24.347,1.71 35.278,5.13c10.931,3.42 20.537,8.55 28.818,15.39c8.281,6.84 14.741,15.472 19.378,25.894c4.638,10.423 6.956,22.638 6.956,36.643l0,100.157c0,8.794 0.332,17.914 0.994,27.36c0.663,9.446 1.656,17.426 2.981,23.94l-30.309,-0c-0.993,-5.537 -1.822,-11.563 -2.484,-18.077c-0.663,-6.515 -0.994,-12.866 -0.994,-19.054l-0.993,-0c-10.6,15.308 -22.608,26.301 -36.023,32.978c-13.416,6.677 -29.564,10.016 -48.445,10.016c-8.944,-0 -18.136,-1.222 -27.576,-3.665c-9.441,-2.442 -18.053,-6.432 -25.837,-11.97c-7.785,-5.537 -14.244,-12.702 -19.378,-21.497c-5.135,-8.794 -7.702,-19.542 -7.702,-32.245c0,-17.589 4.555,-31.513 13.664,-41.773c9.109,-10.26 21.283,-17.914 36.52,-22.963c15.237,-5.048 32.71,-8.305 52.42,-9.771c19.709,-1.466 40.163,-2.199 61.363,-2.199l-0,-7.328Zm-9.938,33.222c-13.912,0 -27.907,0.57 -41.985,1.71c-14.078,1.14 -26.831,3.42 -38.259,6.84c-11.428,3.42 -20.786,8.388 -28.073,14.902c-7.287,6.514 -10.931,15.146 -10.931,25.894c-0,8.143 1.573,14.983 4.72,20.52c3.147,5.537 7.37,10.016 12.67,13.436c5.3,3.42 11.18,5.862 17.639,7.328c6.459,1.466 13.002,2.199 19.627,2.199c11.924,-0 22.524,-2.036 31.799,-6.107c9.275,-4.072 17.059,-9.609 23.353,-16.612c6.294,-7.003 11.097,-15.064 14.409,-24.184c3.313,-9.12 4.969,-18.728 4.969,-28.826l-0,-17.1l-9.938,0Zm185.332,78.66l0.994,0l72.046,-192.985l36.768,0l-115.77,287.768c-6.956,17.588 -15.817,31.675 -26.583,42.261c-10.765,10.586 -26.251,15.879 -46.457,15.879c-10.268,-0 -20.371,-0.978 -30.309,-2.932l3.478,-30.291c7.95,2.606 16.231,3.908 24.844,3.908c11.593,0 20.703,-3.501 27.328,-10.504c6.624,-7.003 12.421,-17.018 17.39,-30.047l18.881,-47.88l-99.374,-228.162l37.762,0l79.002,192.985Z" style="fill:#141212;"/></g></svg>